<?xml version="1.0" encoding="UTF-8"?><svg id="Layer_2" xmlns="http://www.w3.org/2000/svg" xmlns:xlink="http://www.w3.org/1999/xlink" viewBox="0 0 303.18 175.51"><defs><style>.cls-1{fill:url(#linear-gradient);stroke-width:0px;}</style><linearGradient id="linear-gradient" x1="0" y1="87.75" x2="303.18" y2="87.75" gradientUnits="userSpaceOnUse"><stop offset="0" stop-color="#f04393"/><stop offset="1" stop-color="#f9c349"/></linearGradient></defs><g id="Layer_2-2"><path class="cls-1" d="m128.07,58.87c-.84-6.94.93-13.1,5.38-18.41,4.2-5.01,9.71-7.9,16.22-8.34,15.15-1.01,25.93,11.26,25.39,22.85h.01c.19,7.09-2.15,12.56-6.49,17.14-4.24,4.47-9.6,6.93-15.72,7.18-14.42.59-23.57-10.32-24.79-20.42Zm44.38,48.23c7.98-3.29,14.93-8.07,20.65-14.62,3.02-3.46,5.6-7.17,7.73-11.24,3.79-7.26,5.77-15.01,6.33-23.12.26-3.84-.16-7.67-.76-11.5-.85-5.4-2.46-10.54-4.85-15.42-3.62-7.4-8.6-13.7-15.06-18.88-6.37-5.1-13.5-8.55-21.34-10.65-3.22-.87-6.54-1.16-9.82-1.63-1.64-.24-3.04.78-3.34,2.21-.28,1.35.65,2.44,2.42,2.93,1.77.49,3.6.49,5.39.77,4.7.74,9.2,2.11,13.45,4.16,7.43,3.58,13.7,8.66,18.68,15.28,6.02,8.02,9.32,17.08,10.06,27,.31,4.13.07,8.31-.75,12.45-2.2,11.19-7.39,20.63-15.88,28.3-4.36,3.94-9.23,7.01-14.63,9.29-5.67,2.4-11.62,3.58-17.75,3.81-1.78.07-3.57-.03-5.38-.21-2.57-.26-5.13-.58-7.63-1.17-11.14-2.63-20.33-8.44-27.62-17.21-3.77-4.54-6.56-9.68-8.54-15.25-1.48-4.16-2.27-8.47-2.73-12.81h0c.27-.88-.01-1.65-.22-2.43-.37-1.34-1.62-1.99-3.21-1.69-1,.19-2.24,1.89-1.87,2.9.5,1.36.23,2.75.44,4.12.42,2.81.89,5.59,1.7,8.31,3.3,11.12,9.27,20.47,18.32,27.83,6.16,5.02,13.05,8.53,20.71,10.6,3.7,1,7.47,1.72,11.28,1.83,3.72.11,7.44.12,11.17-.45,4.5-.68,8.88-1.79,13.06-3.51Zm-43.78-10.98c6.25,3.6,13,5.53,20.14,5.99,3.34.22,6.72.05,10.08-.47,4.26-.65,8.34-1.81,12.22-3.6,6.91-3.2,12.79-7.75,17.48-13.8,5.52-7.11,8.84-15.16,9.57-24.07.49-6.04.07-12.12-1.82-18.02-2.86-8.93-7.75-16.5-15.01-22.43-5.49-4.48-11.72-7.6-18.66-9.25-2.47-.58-4.99-.83-7.49-1.18-1.69-.24-3.04.82-3.15,2.21-.14,1.73.74,2.54,2.7,2.93,1.7.34,3.42.4,5.12.78,9.77,2.21,17.9,6.99,24.1,14.95,5.85,7.51,8.82,15.98,8.86,25.47h.03c.12,2.8-.24,5.52-.81,8.25-2.28,10.89-8.03,19.49-17.11,25.84-6.95,4.86-14.75,7.2-23.22,7.27-1.39.01-2.76-.06-4.16-.21-2.79-.31-5.52-.83-8.19-1.65-6.31-1.94-11.83-5.21-16.55-9.83-.56-.55-1.23-.92-1.98-1.03-1.13-.17-2.09.31-2.54,1.33-.48,1.07-.41,2.2.54,3.09,3.01,2.84,6.25,5.35,9.85,7.43Zm37.96-12.03c-4.23,2.33-8.8,3.58-13.66,3.67-2.33.04-3.74,1.97-2.82,3.83.64,1.3,1.85,1.43,2.55,1.35h0c2.59-.03,4.55-.44,6.5-.85,6.07-1.27,11.45-4.01,16.15-7.99,3.71-3.13,6.72-6.89,8.98-11.19,2.3-4.37,3.69-9.07,4.05-13.97.24-3.2.14-6.44-.46-9.66-.82-4.38-2.21-8.52-4.48-12.33-2.14-3.59-4.68-6.85-7.96-9.56-2.5-2.08-5.15-3.87-8.03-5.33-3.77-1.91-7.83-2.87-11.97-3.55-1.59-.26-3.29.81-3.45,2.22-.19,1.7.81,2.72,2.72,2.91,1.19.12,2.38.31,3.54.58,8.01,1.89,14.52,6.1,19.4,12.74,4.28,5.81,5.95,12.5,6.12,19.56.04,1.83-.32,3.78-.74,5.66-2.17,9.81-7.69,17.09-16.44,21.91Zm63.38,67.8c.72,6.14-.8,11.69-4.88,16.39-3.35,3.86-7.63,6.21-12.72,6.91-6.36.87-12-.84-16.76-5.16-4.13-3.75-6.35-8.53-6.65-14.05-.67-12.7,9.54-22.55,20.52-21.97,12.04-.22,19.48,9.26,20.49,17.88Zm-6.46,1.1c-.6-4.41-2.56-7.9-6.08-10.56-2.79-2.1-5.96-2.89-9.42-2.59h0c-.45.05-.92,0-1.33.14-3.04.97-5.72,2.43-7.78,5.01-3.15,3.93-4.23,8.4-3.09,13.15,1.62,6.7,7.99,12.44,15.71,11.13,4.7-.79,8.03-3.4,10.3-7.37,1.56-2.71,2.13-5.68,1.69-8.91Zm37.61,8.9c2.11,4.02,4.16,8.08,6.22,12.13.73,1.45.71,1.46-.86,1.46-1.18,0-2.36-.07-3.53.02-1.11.09-1.77-.33-2.2-1.32-1.55-3.55-3.57-6.87-5.28-10.34-.36-.73-.71-.9-1.66-.76-1.95.28-3.97.15-5.96.16-2.96,0-2.96,0-2.96,3,0,2.67-.04,5.34.02,8.01.02.9-.15,1.31-1.16,1.24-1.22-.09-2.45-.07-3.67,0-1.07.06-1.42-.34-1.41-1.4.04-6.51.02-13.03.02-19.54h0c0-6.41.02-12.84-.02-19.26,0-1.04.24-1.38,1.34-1.37,4.48.05,8.98-.22,13.45.05,6.14.37,12.03,3.59,13.86,10.55,1.26,4.77.51,9.36-2.92,13.32-.89,1.03-1.81,1.91-2.93,2.61-.64.4-.71.75-.34,1.44Zm-1.05-18.08c-1.2-2.09-3.06-3.64-5.5-4.17-2.7-.58-5.46-.35-8.2-.39-.89-.01-1.17.3-1.15,1.18.05,2.67.02,5.34.02,8.01h-.01c0,2.34-.02,4.7,0,7.05.02,2.37-.32,2.02,1.98,2.04,1.99.02,3.99.02,5.98,0,.62,0,1.22.11,1.87-.11,5.78-2.03,7.93-8.55,5.01-13.61Zm-80.88-.67c2.04,5.14,1.16,9.9-1.91,14.12-2.51,3.44-6.19,5.31-10.61,5.76-2.76.28-5.49.19-8.23.24-.84.02-1.08.28-1.07,1.1.04,3.26-.03,6.52.04,9.77.02,1.06-.28,1.45-1.36,1.37-1.17-.09-2.36-.08-3.53,0-1.1.07-1.5-.39-1.37-1.43v-19.55h0c0-6.43.02-12.86-.02-19.28,0-.97.2-1.33,1.26-1.32,4.53.05,9.07-.2,13.58.05,5.74.32,10.97,3.48,13.22,9.17Zm-5.44,4.72c-.17-3.68-3.3-7.6-6.98-8.26-2.74-.49-5.48-.11-8.22-.29-1-.07-1.2.38-1.19,1.27.05,2.58.02,5.15.02,7.73h-.01c0,2.54.09,5.08-.04,7.6-.07,1.44.44,1.75,1.76,1.68,2.26-.11,4.53-.13,6.79-.02,2.02.09,3.56-.84,4.88-2.11,2.14-2.04,3.13-4.59,2.99-7.6Zm-145.08-2.6c1.83,7.77-2.98,15.66-11.22,17.43-3.22.69-6.52.67-9.8.55-1.11-.04-1.48.25-1.45,1.41.08,3.12-.02,6.25.05,9.37.03,1.16-.4,1.53-1.5,1.46-.99-.07-1.99-.01-2.99-.01-1.19,0-1.78-.57-1.78-1.72v-19.14h0c0-6.44.03-12.86-.03-19.29-.01-1.16.34-1.42,1.44-1.41,4.35.06,8.71-.19,13.05.04,7.16.39,12.57,4.27,14.22,11.31Zm-6.43.94c-.92-3.17-2.81-5.63-6.13-6.48-2.99-.77-6.09-.32-9.15-.39-.74-.02-.76.45-.76.98,0,5.42.01,10.84-.01,16.27,0,.78.28,1.02,1.03,1,1.36-.04,2.71-.01,4.07-.01h.01v-.07c1.62,0,3.37.39,4.85-.07,4.87-1.52,7.41-6.7,6.09-11.23Zm108.79,5.72c-1.44.04-2.86-.05-4.28-.35-2.27-.49-4.36-2.67-4.7-5.01-.28-1.9.94-5.06,3.19-6.01,1.49-.63,2.97-.51,4.47-.68,2.77-.32,5.67,2.05,6.4,4.73,1.55-1.21,2.9-2.44,4.41-3.41,1.07-.68.63-1.3.22-1.93-.99-1.52-2.28-2.76-3.89-3.65-3.78-2.09-7.89-2.07-11.89-1.29-6.52,1.28-10.21,7.21-9.09,13.42,1,5.52,5.36,9.99,11.73,9.78,1.34-.05,2.69-.07,4.01.3,2.15.61,3.57,2,4.27,4.07.68,2.02.16,3.83-1.18,5.46-1.68,2.05-3.9,2.27-6.33,2.19-2.9-.1-5.12-1.52-6.03-4.25-.24-.72-.48-.78-1.01-.36-1.29,1.03-2.53,2.14-3.9,3.04-.76.5-.64.81-.3,1.45,1.55,2.88,3.96,4.7,7.07,5.46,2.47.6,4.98.57,7.56.36,4.38-.35,7.36-2.49,9.33-6.17,1.87-3.47,1.84-7.04.19-10.66-1.82-3.99-5.86-6.64-10.25-6.49Zm5.08-7.31s0,0,0-.01c0,0,0,0,0,0h.01Zm-40.46,7.29c-1.53.1-3.05,0-4.56-.32-2.4-.51-4.94-3.64-4.65-6.06.35-2.92,2.29-4.98,5.04-5.58.95-.21,1.98-.03,2.98-.03,2.79-.01,4.82,1.3,5.82,3.88.24.62.35.71.88.3,1.4-1.09,2.85-2.12,4.27-3.2.39-.29.35-.67.08-1.07-.94-1.39-1.98-2.64-3.34-3.67-1.91-1.46-4.1-1.91-6.39-2.1-3.28-.28-6.62-.23-9.55,1.39-4.77,2.63-6.89,7.52-5.74,12.91,1.06,4.99,5.79,9.35,11.2,9.16,1.74-.06,3.5-.14,5.16.57,2.04.87,3.41,2.42,3.7,4.57.32,2.28-.39,4.3-2.38,5.78-1.62,1.21-3.44.98-5.26,1.09-2.94.18-5.7-1.95-6.36-5.18l-.02.03c-1.7,1.33-3.23,2.54-4.78,3.73-.51.4-.44.81-.16,1.28,1.47,2.45,3.37,4.46,6.18,5.29,2.81.82,5.67.82,8.61.58,3.81-.32,6.5-2.18,8.61-5.11,1.7-2.37,2.09-5.03,1.85-7.93-.48-5.76-6.07-10.66-11.19-10.31Zm-41.02-18.16c5.7,13.97,11.28,27.64,16.91,41.44h-.01c-1.96.01-3.72-.03-5.48.03-.92.03-1.1-.57-1.35-1.21-.91-2.39-.29-2.06-2.99-2.07-5.02-.02-10.05.02-15.07-.03-1.02,0-1.47.33-1.86,1.29-.99,2.45-.25,1.95-2.92,2-1.31.03-2.62,0-4.15,0,5.64-13.8,11.21-27.46,16.92-41.45Zm7.14,32.78c-2.39-6.13-4.71-12.1-7.18-18.45-2.37,6.07-4.57,11.74-6.8,17.4-.23.59-.45,1.05.48,1.05h13.5Zm241.37-31.77c.02-.66-.25-.85-.88-.85-8.3.02-16.59.02-24.88,0-.73,0-.94.26-.92.95.05,1.22.08,2.44,0,3.66-.07,1.03.2,1.43,1.32,1.38,2.27-.09,4.53-.03,6.8-.02,2.26.01,1.93-.21,1.93,1.97.02,10.59.02,21.18,0,31.77,0,1.01.12,1.66,1.37,1.58,1.22-.08,2.45-.07,3.67,0,.95.06,1.22-.26,1.22-1.21-.04-5.43-.02-10.86-.02-16.29h-.03v-16.03c0-1.19.58-1.79,1.73-1.79,2.5,0,4.99-.02,7.48,0,.84.01,1.25-.27,1.21-1.18-.05-1.31-.03-2.63,0-3.94Z"/></g></svg>