<?xml version="1.0" encoding="UTF-8"?><svg id="Layer_2" xmlns="http://www.w3.org/2000/svg" xmlns:xlink="http://www.w3.org/1999/xlink" viewBox="0 0 349.43 218.05"><defs><style>.cls-1{fill:url(#linear-gradient);stroke-width:0px;}</style><linearGradient id="linear-gradient" x1="0" y1="109.03" x2="349.43" y2="109.03" gradientUnits="userSpaceOnUse"><stop offset="0" stop-color="#4668db"/><stop offset="1" stop-color="#af6ab3"/></linearGradient></defs><g id="Layer_1-2"><path class="cls-1" d="m184.43,0v59.45l30.61-14.83V0h-30.61Zm-29,149.51h-30.61V0h30.61v149.51Zm59.61-56.44h-30.61v56.44h30.61v-56.44Zm-57.31-33.62v30.61h56.44l-29.73-30.61h-26.7ZM13.04,194.28l16.7,23.77h-5.73l-14.29-20.69-5.24,5.67v15.02H0v-41.56h4.48v20.66h.15l18.86-20.66h5.39l-15.84,17.79Zm45.49-16.3c1.95,1,3.46,2.4,4.52,4.22,1.07,1.82,1.6,3.97,1.6,6.44,0,1.89-.32,3.6-.96,5.13-.64,1.53-1.55,2.84-2.74,3.93-1.19,1.09-2.61,1.9-4.25,2.45l8.68,17.89h-5.15l-7.95-16.94h-10.79v16.94h-4.48v-41.56h14.6c2.66,0,4.97.5,6.92,1.49Zm-7.71,19.04c2.99,0,5.28-.69,6.87-2.07,1.59-1.38,2.39-3.38,2.39-6s-.79-4.73-2.38-6.2c-1.58-1.47-3.81-2.21-6.67-2.21h-9.54v16.48h9.32Zm24.59,21.02v-41.56h4.48v41.56h-4.48Zm24.89,0v-37.51h-12.92v-4.05h30.35v4.05h-12.98v37.51h-4.45Zm34.1,0v-37.51h-12.92v-4.05h30.35v4.05h-12.98v37.51h-4.45Zm17.76,0l14.93-41.56h4.39l14.9,41.56h-4.69l-4.42-12.98h-16l-4.42,12.98h-4.69Zm17-36.05l-6.64,19.38h13.47l-6.67-19.38h-.15Zm25.08,36.05v-41.56h4.27l14.32,33.64h.18l14.26-33.64h4.3v41.56h-4.05v-31.78h-.27l-12.34,28.58h-3.99l-12.4-28.58h-.21v31.78h-4.05Zm45.19,0l14.93-41.56h4.39l14.9,41.56h-4.69l-4.42-12.98h-16l-4.42,12.98h-4.69Zm17-36.05l-6.64,19.38h13.47l-6.67-19.38h-.15Zm46.44-4.02c1.95,1,3.46,2.4,4.52,4.22,1.07,1.82,1.6,3.97,1.6,6.44,0,1.89-.32,3.6-.96,5.13-.64,1.53-1.55,2.84-2.74,3.93-1.19,1.09-2.61,1.9-4.25,2.45l8.68,17.89h-5.15l-7.95-16.94h-10.79v16.94h-4.48v-41.56h14.6c2.66,0,4.97.5,6.92,1.49Zm-7.71,19.04c2.99,0,5.28-.69,6.87-2.07,1.59-1.38,2.39-3.38,2.39-6s-.79-4.73-2.38-6.2c-1.58-1.47-3.81-2.21-6.67-2.21h-9.54v16.48h9.32Zm37.57-2.74l16.7,23.77h-5.73l-14.29-20.69-5.24,5.67v15.02h-4.48v-41.56h4.48v20.66h.15l18.86-20.66h5.39l-15.84,17.79Z"/></g></svg>